<!-- floorplan.svg (좌석 1–21, 문, 가운데 벽) -->
<svg xmlns="http://www.w3.org/2000/svg" viewBox="0 -200 800 330">
  <style>
    .seat     { fill:#27ae60; cursor:pointer; }
    .occupied { fill:#c0392b; }
    text      { font-family:sans-serif; font-size:12px; pointer-events:none; fill:#ffffff; }
  </style>

  <!-- ───────────── 왼쪽 블록: 2행 × 3열 (S01–S06) ───────────── -->
  <!-- 1행 -->
  <circle id="S01" data-seat="S01" class="seat" cx="70"  cy="50"  r="25"/><text x="70"  y="55"  text-anchor="middle">1</text>
  <circle id="S02" data-seat="S02" class="seat" cx="140" cy="50"  r="25"/><text x="140" y="55"  text-anchor="middle">2</text>
  <circle id="S03" data-seat="S03" class="seat" cx="210" cy="50"  r="25"/><text x="210" y="55"  text-anchor="middle">3</text>
  <!-- 2행 -->
  <circle id="S04" data-seat="S04" class="seat" cx="70"  cy="130" r="25"/><text x="70"  y="135" text-anchor="middle">4</text>
  <circle id="S05" data-seat="S05" class="seat" cx="140" cy="130" r="25"/><text x="140" y="135" text-anchor="middle">5</text>
  <circle id="S06" data-seat="S06" class="seat" cx="210" cy="130" r="25"/><text x="210" y="135" text-anchor="middle">6</text>

  <!-- 가운데 벽 -->
  <line x1="300" y1="20" x2="300" y2="180" stroke="#808080" stroke-width="6"/>

  <!-- ───────────── 오른쪽 블록: 2행 × 4열 (S07–S14) ───────────── -->
  <!-- 1행 -->
  <circle id="S07" data-seat="S07" class="seat" cx="360" cy="50"  r="25"/><text x="360" y="55"  text-anchor="middle">7</text>
  <circle id="S08" data-seat="S08" class="seat" cx="430" cy="50"  r="25"/><text x="430" y="55"  text-anchor="middle">8</text>
  <circle id="S09" data-seat="S09" class="seat" cx="500" cy="50"  r="25"/><text x="500" y="55"  text-anchor="middle">9</text>
  <circle id="S10" data-seat="S10" class="seat" cx="570" cy="50"  r="25"/><text x="570" y="55"  text-anchor="middle">10</text>
  <!-- 2행 -->
  <circle id="S11" data-seat="S11" class="seat" cx="360" cy="130" r="25"/><text x="360" y="135" text-anchor="middle">11</text>
  <circle id="S12" data-seat="S12" class="seat" cx="430" cy="130" r="25"/><text x="430" y="135" text-anchor="middle">12</text>
  <circle id="S13" data-seat="S13" class="seat" cx="500" cy="130" r="25"/><text x="500" y="135" text-anchor="middle">13</text>
  <circle id="S14" data-seat="S14" class="seat" cx="570" cy="130" r="25"/><text x="570" y="135" text-anchor="middle">14</text>

  <!-- ───────────── 추가: 위로 올린 1행 4열 + 3행 1열 + 문 ───────────── -->
  <!-- 1행 4열 (S15–S18) – 10번보다 위쪽으로 평행 이동 -->
  <circle id="S15" data-seat="S15" class="seat" cx="460" cy="-170" r="25"/><text x="460" y="-165" text-anchor="middle">15</text>
  <circle id="S16" data-seat="S16" class="seat" cx="520" cy="-170" r="25"/><text x="520" y="-165" text-anchor="middle">16</text>
  <circle id="S17" data-seat="S17" class="seat" cx="580" cy="-170" r="25"/><text x="580" y="-165" text-anchor="middle">17</text>
  <circle id="S18" data-seat="S18" class="seat" cx="640" cy="-170" r="25"/><text x="640" y="-165" text-anchor="middle">18</text>

  <!-- ───────────── 3행 1열 (세로) + 문 ───────────── -->
  <!-- 70 px 간격으로 배치된 S19–S21 -->
  <circle id="S19" data-seat="S19" class="seat" cx="700" cy="-150" r="25"/><text x="700" y="-145" text-anchor="middle">19</text>
  <circle id="S20" data-seat="S20" class="seat" cx="700" cy="-80"  r="25"/><text x="700" y="-75"  text-anchor="middle">20</text>
  <circle id="S21" data-seat="S21" class="seat" cx="700" cy="-10"  r="25"/><text x="700" y="-5"   text-anchor="middle">21</text>

  <!-- 문(door) – 좌석보다 조금 아래쪽에 세로 막대 하나만 -->
  <line x1="760" y1="20" x2="760" y2="140" stroke="#555" stroke-width="8" stroke-linecap="round"/>

</svg>
